<?xml version="1.0" encoding="iso-8859-1"?>
<!-- Generator: Adobe Illustrator 16.0.0, SVG Export Plug-In . SVG Version: 6.00 Build 0)  -->
<!DOCTYPE svg PUBLIC "-//W3C//DTD SVG 1.1//EN" "http://www.w3.org/Graphics/SVG/1.1/DTD/svg11.dtd">
<svg version="1.1" id="Capa_1" xmlns="http://www.w3.org/2000/svg" xmlns:xlink="http://www.w3.org/1999/xlink" x="0px" y="0px"
	 width="45.668px" height="45.668px" viewBox="0 0 45.668 45.668" style="enable-background:new 0 0 45.668 45.668;"
	 xml:space="preserve">
<g>
	<g>
		<path d="M22.834,0C10.222,0,0,10.223,0,22.834c0,12.611,10.222,22.834,22.834,22.834c12.611,0,22.834-10.223,22.834-22.834
			C45.668,10.223,35.445,0,22.834,0z M34.395,21.547l-10.429,4.264c-0.365,0.148-0.75,0.223-1.133,0.223
			c-0.586,0-1.171-0.172-1.672-0.508c-0.827-0.558-1.325-1.488-1.325-2.486V8.564c0-1.653,1.341-2.994,2.995-2.994
			c1.653,0,2.995,1.341,2.995,2.994v10.015l6.302-2.576c1.528-0.625,3.278,0.108,3.905,1.64
			C36.66,19.173,35.925,20.921,34.395,21.547z"/>
	</g>
</g>
<g>
</g>
<g>
</g>
<g>
</g>
<g>
</g>
<g>
</g>
<g>
</g>
<g>
</g>
<g>
</g>
<g>
</g>
<g>
</g>
<g>
</g>
<g>
</g>
<g>
</g>
<g>
</g>
<g>
</g>
</svg>
